<svg width="32" height="32" viewBox="0 0 32 32" fill="none" xmlns="http://www.w3.org/2000/svg">
<path d="M16 32C24.8366 32 32 24.8366 32 16C32 7.16344 24.8366 0 16 0C7.16344 0 0 7.16344 0 16C0 24.8366 7.16344 32 16 32Z" fill="black"/>
<path d="M17.6936 10.4311H20V7H17.2718C13.9814 7.1407 13.3064 8.9968 13.25 10.9375V12.6532H11V16H13.25V25H16.625V16H19.4093L19.9436 12.6532H16.625V11.6125C16.6159 11.4644 16.6366 11.316 16.6856 11.1759C16.7347 11.0359 16.8113 10.9071 16.9108 10.797C17.0103 10.687 17.1309 10.5979 17.2653 10.5351C17.3997 10.4723 17.5453 10.4369 17.6936 10.4311Z" fill="white"/>
</svg>
