<svg width="32" height="32" viewBox="0 0 32 32" fill="none" xmlns="http://www.w3.org/2000/svg">
<path d="M16 32C24.8366 32 32 24.8366 32 16C32 7.16344 24.8366 0 16 0C7.16344 0 0 7.16344 0 16C0 24.8366 7.16344 32 16 32Z" fill="black"/>
<path d="M19.2571 8H12.7758C11.5109 8.00035 10.2978 8.50234 9.40248 9.39587C8.5072 10.2894 8.00283 11.5015 8 12.7664V19.2339C8.0029 20.4987 8.5073 21.7108 9.40257 22.6042C10.2979 23.4977 11.5109 23.9996 12.7758 24H19.2571C20.5224 24.0002 21.736 23.4985 22.6318 22.6049C23.5275 21.7113 24.0322 20.4988 24.035 19.2336V12.7661C24.0321 11.5009 23.5274 10.2886 22.6317 9.39502C21.7359 8.50149 20.5223 7.99978 19.2571 8ZM22.4208 19.2336C22.4204 19.6486 22.3382 20.0595 22.1789 20.4427C22.0197 20.8259 21.7865 21.1741 21.4928 21.4672C21.199 21.7603 20.8503 21.9927 20.4667 22.1511C20.0832 22.3095 19.6721 22.3908 19.2571 22.3904H12.7758C12.3608 22.3908 11.9497 22.3095 11.5661 22.1511C11.1825 21.9927 10.8339 21.7603 10.5401 21.4672C10.2463 21.1741 10.0132 20.8259 9.85394 20.4427C9.6947 20.0595 9.61251 19.6486 9.61205 19.2336V12.7661C9.61251 12.3511 9.6947 11.9403 9.85394 11.557C10.0132 11.1738 10.2463 10.8257 10.5401 10.5325C10.8339 10.2394 11.1825 10.007 11.5661 9.84861C11.9497 9.69021 12.3608 9.60892 12.7758 9.60938H19.2571C19.6721 9.60892 20.0832 9.69022 20.4668 9.84863C20.8504 10.007 21.1991 10.2395 21.4928 10.5326C21.7866 10.8258 22.0198 11.1739 22.179 11.5572C22.3382 11.9405 22.4204 12.3514 22.4208 12.7664V19.2336Z" fill="white"/>
<path d="M16.0178 11.8621C15.1997 11.8637 14.4004 12.1078 13.721 12.5634C13.0415 13.0191 12.5124 13.6659 12.2004 14.4222C11.8884 15.1785 11.8076 16.0103 11.9682 16.8124C12.1288 17.6146 12.5235 18.3512 13.1026 18.9291C13.6816 19.5071 14.4189 19.9004 15.2214 20.0594C16.0239 20.2184 16.8556 20.136 17.6112 19.8226C18.3669 19.5091 19.0127 18.9787 19.4671 18.2984C19.9214 17.6181 20.1639 16.8183 20.1639 16.0002C20.1614 14.9021 19.7236 13.8498 18.9463 13.0741C18.1691 12.2983 17.1159 11.8625 16.0178 11.8621ZM16.0178 18.53C15.5179 18.5289 15.0296 18.3797 14.6146 18.1012C14.1995 17.8227 13.8763 17.4274 13.6858 16.9653C13.4953 16.5032 13.446 15.995 13.5442 15.5049C13.6424 15.0148 13.8837 14.5648 14.2375 14.2117C14.5913 13.8587 15.0419 13.6184 15.5322 13.5213C16.0225 13.4242 16.5306 13.4746 16.9923 13.6661C17.454 13.8577 17.8485 14.1817 18.1261 14.5974C18.4037 15.0131 18.5518 15.5017 18.5518 16.0016C18.5511 16.6729 18.2837 17.3164 17.8084 17.7906C17.3332 18.2647 16.6891 18.5307 16.0178 18.53ZM21.1658 11.8931C21.1662 12.0898 21.1083 12.2822 20.9994 12.4459C20.8904 12.6096 20.7353 12.7373 20.5538 12.8129C20.3722 12.8885 20.1723 12.9084 19.9793 12.8703C19.7864 12.8322 19.6091 12.7377 19.4699 12.5988C19.3307 12.4599 19.2358 12.2828 19.1973 12.09C19.1587 11.8971 19.1783 11.6972 19.2535 11.5154C19.3286 11.3337 19.456 11.1783 19.6195 11.069C19.783 10.9597 19.9753 10.9014 20.1719 10.9014C20.3023 10.9012 20.4315 10.9267 20.552 10.9765C20.6725 11.0262 20.782 11.0992 20.8743 11.1913C20.9666 11.2834 21.0399 11.3928 21.0899 11.5132C21.1399 11.6337 21.1657 11.7627 21.1658 11.8931Z" fill="white"/>
</svg>
