<svg xmlns="http://www.w3.org/2000/svg" width="197" height="31" xmlns:xlink="http://www.w3.org/1999/xlink">
                  <style>.st1a{fill:#0081c8;}.st2a{fill:#ee334e;}.st3a{fill:#00a651;}.st5a{fill:#fff;}.st6a{fill:#c42032;}.st7a{fill:#152c53}</style>
                  <title>Toyota</title><path fill="none" stroke="#717073" stroke-width=".5" d="M123.619 1.814v27.377"></path><path class="st1a" d="M138.411 21.155a3.097 3.097 0 1 0-2.829 3.086 3.356 3.356 0 0 1 .003-.519 2.58 2.58 0 1 1 .532-.113 2.565 2.565 0 0 0-.024.544 3.098 3.098 0 0 0 2.318-2.998"></path><path class="st2a" d="M151.832 21.155a3.096 3.096 0 0 1-6.183.272c.184.019.362.058.533.113a2.58 2.58 0 1 0-.024-.545 3.184 3.184 0 0 0-.512-.088 3.097 3.097 0 0 1 6.186.248"></path><path class="st3a" d="M147.956 24.154a2.581 2.581 0 1 1-3.379-2.613 2.58 2.58 0 0 0 .024-.545 3.098 3.098 0 1 0 3.867 3.245 3.058 3.058 0 0 1-.512-.087m-2.577-2.741c1.295 0 2.367.953 2.553 2.196.171.056.349.094.532.113a3.096 3.096 0 0 0-3.353-2.813 3.045 3.045 0 0 1-.002.518c.089-.009.179-.014.27-.014"></path><path d="M141.757 24.241a3.098 3.098 0 0 1-6.184-.246c0-1.441.985-2.653 2.318-2.998a2.589 2.589 0 0 1-.024.545 2.582 2.582 0 0 0 .803 5.035 2.58 2.58 0 0 0 2.576-2.422c.165.042.336.071.511.086m-3.358-2.814a3.06 3.06 0 0 0 .003-.519 3.097 3.097 0 0 1 3.353 2.814 2.551 2.551 0 0 1-.533-.113 2.582 2.582 0 0 0-2.823-2.182" fill="#fcb131"></path><path d="M142.024 23.736a2.582 2.582 0 0 1-2.552-2.196 2.538 2.538 0 0 0-.533-.113 3.098 3.098 0 0 0 3.353 2.813 3.349 3.349 0 0 1 .002-.518c-.089.01-.179.014-.27.014m0-5.678a3.097 3.097 0 0 0-3.087 2.851c.175.015.346.045.511.088a2.58 2.58 0 1 1 3.379 2.613 2.589 2.589 0 0 0-.024.545 3.1 3.1 0 0 0-.779-6.097"></path><path class="st5a" d="M152.968 1.814h-22.261v14.695h22.636V1.814z"></path><path class="st6a" d="M140.17 2.189h12.797v1.072H140.17zm0 2.145h12.797v1.072H140.17zm0 2.135h12.797v1.072H140.17zm0 2.148h12.797v1.071H140.17zm-9.088 2.148h21.885v1.072h-21.885zm0 2.134h21.885v1.072h-21.885zm0 2.164h21.885v1.071h-21.885z"></path><path class="st7a" d="M131.082 2.189h9.089v7.499h-9.089z"></path><path class="st5a" d="M132.485 3.556h.371l-.297.227.114.364-.295-.224-.296.224.116-.364-.299-.227h.365l.114-.353zm.002 2.263h.369l-.298.228.116.364-.297-.224-.295.224.118-.364-.301-.228h.368l.11-.356zm-.002 2.26h.371l-.297.227.114.364-.295-.223-.296.223.116-.364-.299-.227h.365l.114-.353zm3.269-4.523h.371l-.298.227.115.364-.295-.224-.296.224.116-.364-.299-.227h.365l.114-.353zm.002 2.263h.369l-.298.228.116.364-.297-.224-.295.224.117-.364-.3-.228h.368l.11-.356zm-.002 2.26h.371l-.298.227.115.364-.295-.223-.296.223.116-.364-.299-.227h.365l.114-.353zm3.272-4.523h.368l-.296.227.118.364-.299-.224-.295.224.117-.364-.302-.227h.369l.111-.353zm-.002 2.263h.37l-.298.228.119.363-.3-.223-.294.223.118-.363-.302-.228h.369l.109-.356zm.002 2.26h.368l-.296.228.118.364-.299-.224-.295.224.117-.364-.302-.228h.369l.111-.355zm-4.904-3.391h.368l-.297.229.115.363-.296-.223-.296.223.118-.363-.301-.229h.368l.111-.355zm-.003 2.261h.371l-.297.227.114.365-.294-.224-.297.224.117-.365-.3-.227h.365l.115-.353zm3.272-2.261h.369l-.298.229.115.363-.296-.223-.296.223.118-.363-.301-.229h.368l.111-.355zm-.003 2.261h.372l-.298.227.114.365-.294-.224-.296.224.116-.365-.299-.227h.365l.114-.353zM182.625 1.814h-22.261v14.695H183V1.814z"></path><path class="st6a" d="M169.827 2.189h12.797v1.072h-12.797zm0 2.145h12.797v1.072h-12.797zm0 2.135h12.797v1.072h-12.797zm0 2.148h12.797v1.071h-12.797zm-9.088 2.148h21.885v1.072h-21.885zm0 2.134h21.885v1.072h-21.885zm0 2.164h21.885v1.071h-21.885z"></path><path class="st7a" d="M160.739 2.189h9.089v7.499h-9.089z"></path><path class="st5a" d="M162.142 3.556h.371l-.297.227.114.364-.295-.224-.296.224.116-.364-.299-.227h.365l.114-.353zm.002 2.263h.37l-.298.228.115.364-.297-.224-.295.224.118-.364-.301-.228h.368l.11-.356zm-.002 2.26h.371l-.297.227.114.364-.295-.223-.296.223.116-.364-.299-.227h.365l.114-.353zm3.269-4.523h.371l-.297.227.114.364-.295-.224-.296.224.117-.364-.3-.227h.365l.114-.353zm.002 2.263h.369l-.298.228.116.364-.297-.224-.295.224.117-.364-.3-.228h.368l.11-.356zm-.002 2.26h.371l-.297.227.114.364-.295-.223-.296.223.117-.364-.3-.227h.365l.114-.353zm3.273-4.523h.367l-.296.227.118.364-.299-.224-.295.224.117-.364-.302-.227h.369l.111-.353zm-.003 2.263h.37l-.297.228.118.363-.299-.223-.295.223.118-.363-.302-.228h.37l.109-.356zm.003 2.26h.367l-.296.228.118.364-.299-.224-.295.224.117-.364-.302-.228h.369l.111-.355zm-4.905-3.391h.369l-.298.229.115.363-.296-.223-.296.223.118-.363-.301-.229h.368l.111-.354zm-.003 2.261h.371l-.297.227.114.365-.294-.224-.297.224.117-.365-.3-.227h.365l.115-.353zm3.272-2.261h.369l-.298.229.115.363-.296-.223-.296.223.118-.363-.3-.229h.367l.111-.354zm-.003 2.261h.372l-.298.227.114.365-.294-.224-.296.224.116-.365-.299-.227h.365l.114-.353z"></path><path class="st2a" d="M170.931 18.149c-1.086-.25-2.568.025-3.969.834-2.191 1.265-3.352 3.356-2.593 4.671.485.84 1.637 1.16 2.977.951-.613-.141-1.099-.449-1.373-.924-.759-1.315.402-3.406 2.593-4.671.791-.456 1.608-.743 2.365-.861"></path><path class="st3a" d="M170.95 23.336c.326 1.065 1.306 2.211 2.707 3.02 2.191 1.265 4.583 1.225 5.342-.09.485-.84.186-1.997-.665-3.053.184.601.16 1.177-.114 1.651-.759 1.315-3.151 1.355-5.342.09-.791-.457-1.448-1.021-1.928-1.618"></path><path class="st1a" d="M169.464 20.756c-.759.815-1.262 2.237-1.262 3.854 0 2.53 1.231 4.581 2.749 4.581.97 0 1.823-.838 2.312-2.102-.429.46-.939.727-1.487.727-1.518 0-2.749-2.051-2.749-4.581 0-.914.161-1.765.437-2.479"></path><g>
                   <path d="M108.564 16.363l1.605-4.208 1.602 4.208h-3.207zm3.271-6.597h-3.333l-4.658 11.409h2.887l1.061-2.784h4.752l1.061 2.784h2.886l-4.656-11.409zm-23.508 9.425c-1.881 0-3.403-1.696-3.403-3.79 0-2.094 1.522-3.791 3.403-3.791 1.878 0 3.402 1.697 3.402 3.791s-1.525 3.79-3.402 3.79m0-9.817a6.027 6.027 0 0 0 0 12.052 6.027 6.027 0 1 0 0-12.052m-23.786 9.817c-1.878 0-3.401-1.696-3.401-3.79 0-2.094 1.523-3.791 3.401-3.791 1.88 0 3.403 1.697 3.403 3.791.001 2.094-1.523 3.79-3.403 3.79m0-9.817a6.025 6.025 0 0 0-6.025 6.027 6.026 6.026 0 1 0 6.025-6.027m14.899.392l-2.953 4.616-2.956-4.616h-2.888l4.572 7.155v4.254h2.543v-4.254l4.572-7.156h-2.89zm25.012 0h-9.756v2.188h3.614v9.222h2.545v-9.222h3.598V9.766zm-56.225 2.187h3.615v9.222h2.544v-9.222h3.599V9.766h-9.757v2.187z"></path>
                   <path fill="#eb0a1e" d="M14 1.809h27.381V29.19H14z"></path>
                   <path class="st5a" d="M32.257 9.528c-1.271-.409-2.852-.65-4.566-.65s-3.296.241-4.566.65c-3.38 1.087-5.702 3.343-5.702 5.951 0 3.668 4.597 6.643 10.269 6.643 5.67 0 10.267-2.975 10.267-6.643 0-2.608-2.323-4.864-5.702-5.951m-4.566 9.737c-.846 0-1.538-1.664-1.578-3.755a17.561 17.561 0 0 0 3.156 0c-.041 2.092-.732 3.755-1.578 3.755m-1.471-5.391c.231-1.468.802-2.507 1.471-2.507.668 0 1.24 1.04 1.47 2.507a16.18 16.18 0 0 1-2.941 0m3.841-.111c-.343-2.304-1.275-3.955-2.37-3.955-1.095 0-2.027 1.651-2.37 3.955-2.086-.326-3.544-1.067-3.544-1.93 0-1.163 2.648-2.106 5.914-2.106 3.266 0 5.914.943 5.914 2.106 0 .863-1.458 1.604-3.544 1.93m-11.14 1.472c0-1.125.433-2.178 1.188-3.085a1.338 1.338 0 0 0-.013.19c0 1.415 2.125 2.617 5.088 3.059-.002.107-.004.214-.004.322 0 2.63.73 4.858 1.738 5.626-4.482-.273-7.997-2.904-7.997-6.112m9.543 6.113c1.008-.768 1.738-2.996 1.738-5.626 0-.108-.001-.215-.004-.322 2.962-.442 5.087-1.645 5.087-3.059 0-.064-.005-.127-.014-.19.755.907 1.188 1.961 1.188 3.085.001 3.207-3.514 5.838-7.995 6.112"></path>
                  </g>
                 </svg>