<svg width="32" height="32" viewBox="0 0 32 32" fill="none" xmlns="http://www.w3.org/2000/svg">
<path d="M16 32C24.8366 32 32 24.8366 32 16C32 7.16344 24.8366 0 16 0C7.16344 0 0 7.16344 0 16C0 24.8366 7.16344 32 16 32Z" fill="black"/>
<path fill-rule="evenodd" clip-rule="evenodd" d="M10.7383 10H21.2617C22.2477 9.99518 23.1953 10.382 23.8962 11.0754C24.5972 11.7688 24.9942 12.7121 25 13.6981V18.9019C24.9942 19.8879 24.5972 20.8312 23.8962 21.5246C23.1953 22.2181 22.2477 22.6048 21.2617 22.6H10.7383C9.75231 22.6048 8.80472 22.2181 8.10376 21.5246C7.40279 20.8312 7.00579 19.8879 7 18.9019V13.6981C7.00579 12.7121 7.40279 11.7688 8.10376 11.0754C8.80472 10.382 9.75231 9.99518 10.7383 10ZM14.2646 18.9819L18.8945 16.7405C18.9257 16.7255 18.9521 16.7018 18.9708 16.6721C18.9895 16.6424 18.9996 16.6079 19 16.5725C19.0004 16.5372 18.9911 16.5024 18.9731 16.4723C18.9552 16.4421 18.9293 16.4177 18.8984 16.402L14.2697 14.0205C14.2415 14.0059 14.2102 13.9989 14.1786 14.0001C14.1471 14.0014 14.1163 14.0109 14.0893 14.0278C14.0624 14.0446 14.04 14.0682 14.0244 14.0964C14.0087 14.1245 14.0003 14.1563 14 14.1887V18.8125C14.0005 18.8443 14.0087 18.8755 14.024 18.9032C14.0393 18.9309 14.0611 18.9543 14.0874 18.9711C14.1137 18.988 14.1437 18.9978 14.1747 18.9997C14.2056 19.0015 14.2366 18.9954 14.2646 18.9819Z" fill="white"/>
</svg>
